<svg id="Layer_1_copy" data-name="Layer 1 copy" xmlns="http://www.w3.org/2000/svg" viewBox="0 0 582.61 231.45"><defs><style>.cls-1{fill:#002d5d;}</style></defs><g id="Vector_Smart_Object" data-name="Vector Smart Object"><path class="cls-1" d="M496.8,63.57c0-3.29.19-5.38,2.4-6.51a30.2,30.2,0,0,1,8.13-2.66l.07,0c.16,0,.17-.51-.07-.51H446.2c-.25,0-.24.47-.08.51h.07a30.49,30.49,0,0,1,8.12,2.67c2.22,1.12,2.4,3.23,2.4,6.52v61.09c0,13.93-8,24.63-23.81,24.63s-23.82-10.7-23.82-24.63V63.61c0-3.3.19-5.42,2.4-6.55a30.13,30.13,0,0,1,8.12-2.66l.08,0c.16,0,.16-.51-.08-.51H361.89c-.25,0-.24.47-.08.51h.07a10.09,10.09,0,0,1,4.73,2.36c1.91,1.62,2.4,3.54,2.4,6.83v60c0,28.94,15.84,53.52,63.9,53.52s63.9-24.58,63.9-53.52Z"/><path class="cls-1" d="M121.14,76.71h18.58c12.1,0,19.21,1.88,19.21,12.89,0,7.15-4.41,13.53-18.72,13.53H121.14Zm0,45.13h16.11c10.73,0,23.87,0,23.87,14.86,0,11-9.41,14.86-22.06,14.86H121.14ZM82.56,63.57V165.21c0,3.3-.2,5.43-2.41,6.55A30.49,30.49,0,0,1,72,174.43H72c-.17,0-.18.51.07.51h82.21c34.67,0,49.26-13.76,49.26-35.22,0-15.87-7.39-25.7-22-29.34-.09,0-.1-.23,0-.26,9.32-2.91,17.89-9.74,17.89-26.26,0-22.41-15.13-30-48.15-30H72.05c-.24,0-.23.47-.07.51l.07,0a30.31,30.31,0,0,1,8.13,2.66C82.39,58.19,82.56,60.27,82.56,63.57Z"/><path class="cls-1" d="M300.42,54.4c2.05,0,5.23.15,5,5-.18,4.18-21.67,34.62-24.18,39.19-7.54-11.43-24-34.65-24.21-39.19-.13-3.72,3-5,5.72-5l.07,0c.16,0,.18-.51-.07-.51H203.38c-.24,0-.23.47-.07.51l.07,0a21.32,21.32,0,0,1,6.69,2.21,10.79,10.79,0,0,1,1.5,1,30.1,30.1,0,0,1,5.65,6.78l41.88,62v38.83c0,3.29-.19,5.42-2.4,6.55a30.92,30.92,0,0,1-8.13,2.66h-.07c-.16.05-.17.51.08.51H313c.25,0,.25-.46.08-.51H313a30.84,30.84,0,0,1-8.12-2.66c-2.22-1.13-2.4-3.25-2.4-6.54V126.65l41.93-62.26a30.23,30.23,0,0,1,5.65-6.79,14.6,14.6,0,0,1,1.5-1.14,11.92,11.92,0,0,1,4.73-2.06l.07,0c.17,0,.17-.51-.08-.51H300.41c-.25,0-.24.47-.07.51Z"/></g></svg>